<svg xmlns="http://www.w3.org/2000/svg" width="61.534" height="49.228" viewBox="0 0 61.534 49.228">
  <path id="Icon_awesome-car-crash" data-name="Icon awesome-car-crash" d="M13.773,21.23l-1.194,4.458A9.066,9.066,0,0,0,12.347,29L8.963,31.781a.87.87,0,0,1-1.406-.843l1.484-7.373a.869.869,0,0,0-.769-1.037L.787,21.8a.87.87,0,0,1-.4-1.59l6.264-4.163a.871.871,0,0,0,.19-1.278L2.063,8.963a.87.87,0,0,1,.844-1.406L10.28,9.042a.87.87,0,0,0,1.038-.769L12.044.787a.87.87,0,0,1,1.591-.4L17.8,6.652a.871.871,0,0,0,1.278.19l5.807-4.779a.87.87,0,0,1,1.406.843L25.2,8.305c-.261.293-.522.586-.761.9l-3.091,4.131-1.03,1.377A9.274,9.274,0,0,0,13.773,21.23Zm47.551,12.74L60.13,38.428a6.025,6.025,0,0,1-1.687,2.823,6.43,6.43,0,0,1-.842.673l-1.345,5.022a3.074,3.074,0,0,1-3.768,2.176l-2.972-.8a3.077,3.077,0,0,1-2.176-3.768l.8-2.972L24.361,35.215l-.8,2.972A3.077,3.077,0,0,1,19.8,40.362l-2.972-.8A3.075,3.075,0,0,1,14.649,35.8l1.345-5.022a6.4,6.4,0,0,1-.393-1,6.024,6.024,0,0,1-.05-3.288l1.194-4.458a6.108,6.108,0,0,1,3.547-4.058,6.186,6.186,0,0,1,1.778-.454l1.743-2.33L26.9,11.052a10.829,10.829,0,0,1,3.648-3.11A10.556,10.556,0,0,1,32,7.318a10.673,10.673,0,0,1,3.1-.581,10.856,10.856,0,0,1,3.214.365l11.8,3.16a10.837,10.837,0,0,1,2.966,1.291,10.712,10.712,0,0,1,4.939,7.835l.611,5.124L58.97,27.4a6.2,6.2,0,0,1,2.186,2.878,6.072,6.072,0,0,1,.168,3.691ZM24.573,22.531A2.9,2.9,0,0,0,20.807,24.7a2.9,2.9,0,0,0,2.178,3.758c1.784.478,4.379,1.491,4.854-.287S26.356,23.009,24.573,22.531ZM52.514,25.24,51.9,20.116A4.614,4.614,0,0,0,48.515,16.2l-11.8-3.16a4.616,4.616,0,0,0-4.89,1.693l-3.091,4.131L45.275,23.3l7.239,1.94Zm1.778,5.254c-1.784-.478-5.173,1.472-5.649,3.249s2.278,2.2,4.061,2.676a3.067,3.067,0,1,0,1.587-5.925Z" transform="translate(0 0.001)"/>
</svg>
