<svg xmlns="http://www.w3.org/2000/svg" width="46.71" height="53.383" viewBox="0 0 46.71 53.383">
  <path id="Icon_awesome-building" data-name="Icon awesome-building" d="M45.459,50.047H43.374V2.5a2.5,2.5,0,0,0-2.5-2.5H5.839a2.5,2.5,0,0,0-2.5,2.5V50.047H1.251A1.251,1.251,0,0,0,0,51.3v2.085H46.71V51.3A1.251,1.251,0,0,0,45.459,50.047ZM13.346,7.924A1.251,1.251,0,0,1,14.6,6.673h4.171a1.251,1.251,0,0,1,1.251,1.251v4.171a1.251,1.251,0,0,1-1.251,1.251H14.6a1.251,1.251,0,0,1-1.251-1.251Zm0,10.009A1.251,1.251,0,0,1,14.6,16.682h4.171a1.251,1.251,0,0,1,1.251,1.251V22.1a1.251,1.251,0,0,1-1.251,1.251H14.6A1.251,1.251,0,0,1,13.346,22.1Zm5.422,15.431H14.6a1.251,1.251,0,0,1-1.251-1.251V27.943A1.251,1.251,0,0,1,14.6,26.691h4.171a1.251,1.251,0,0,1,1.251,1.251v4.171A1.251,1.251,0,0,1,18.767,33.364Zm7.924,16.682H20.019V41.288a1.251,1.251,0,0,1,1.251-1.251H25.44a1.251,1.251,0,0,1,1.251,1.251Zm6.673-17.933a1.251,1.251,0,0,1-1.251,1.251H27.943a1.251,1.251,0,0,1-1.251-1.251V27.943a1.251,1.251,0,0,1,1.251-1.251h4.171a1.251,1.251,0,0,1,1.251,1.251Zm0-10.009a1.251,1.251,0,0,1-1.251,1.251H27.943A1.251,1.251,0,0,1,26.691,22.1V17.933a1.251,1.251,0,0,1,1.251-1.251h4.171a1.251,1.251,0,0,1,1.251,1.251Zm0-10.009a1.251,1.251,0,0,1-1.251,1.251H27.943a1.251,1.251,0,0,1-1.251-1.251V7.924a1.251,1.251,0,0,1,1.251-1.251h4.171a1.251,1.251,0,0,1,1.251,1.251Z"/>
</svg>
