<svg xmlns="http://www.w3.org/2000/svg" width="30" height="30" viewBox="0 0 30 30">
  <path id="Icon_metro-instagram" data-name="Icon metro-instagram" d="M27.59,1.928H7.551a5,5,0,0,0-4.98,4.98V26.948a5,5,0,0,0,4.98,4.98H27.59a5,5,0,0,0,4.98-4.98V6.909a5,5,0,0,0-4.98-4.98ZM12.174,15.053H22.967a5.713,5.713,0,1,1-10.793,0Zm16.646,0V26.3a1.881,1.881,0,0,1-1.875,1.875H8.2A1.881,1.881,0,0,1,6.321,26.3V15.053H9.254a8.525,8.525,0,1,0,16.634,0h2.933Zm0-6.564a.94.94,0,0,1-.937.938H26.008a.94.94,0,0,1-.937-.937V6.616a.94.94,0,0,1,.937-.937h1.875a.94.94,0,0,1,.937.938Z" transform="translate(-2.571 -1.928)" fill="#fff"/>
</svg>
