<svg xmlns="http://www.w3.org/2000/svg" width="30" height="30" viewBox="0 0 30 30">
  <path id="Icon_metro-youtube" data-name="Icon metro-youtube" d="M11.16,1.928,9.133,5.949,7.106,1.928H4.521L8.174,8.295,8.2,8.282v4.9h1.875v-4.9l.021.013,3.654-6.367Zm5.473,3.75a.95.95,0,0,1,.938.938v3.75a.937.937,0,1,1-1.875,0V6.616a.95.95,0,0,1,.937-.938Zm0-1.875a2.821,2.821,0,0,0-2.812,2.813v3.75a2.812,2.812,0,1,0,5.625,0V6.616A2.821,2.821,0,0,0,16.633,3.8Zm8.438,0v7.382c-.818.682-1.875,1.094-1.875-1.337V3.8H21.321v6.426h0c.029,1.55.356,4.341,3.747,2.072v.878h1.875V3.8H25.071Zm2.813,18.75a.939.939,0,0,0-.937.938v.938h1.875v-.937a.939.939,0,0,0-.937-.937Zm-8.437.938v4.922c.635.635,1.875.7,1.875-.234V23.784C21.321,22.846,20.383,22.553,19.446,23.491Zm12.972-4.525a3.9,3.9,0,0,0-3.833-3.759c-2.044-.1-6.722-.153-10.832-.153s-9.12.051-11.164.153a3.9,3.9,0,0,0-3.833,3.759c-.123,2.2-.184,3-.184,4.1s.061,2.751.184,4.952a3.9,3.9,0,0,0,3.833,3.759c2.044.1,7.055.153,11.164.153s8.787-.051,10.832-.153a3.9,3.9,0,0,0,3.833-3.759q.153-2.751.153-4.952c0-1.467-.051-2.265-.153-4.1ZM8.2,30.053H6.321V20.678H4.446V18.8h5.625v1.875H8.2Zm7.5,0H13.821v-.878c-3.564,2-3.718.064-3.747-1.486h0V22.553h1.875v5.166c0,1.133,1.057,1.023,1.875.341V22.553H15.7Zm7.5-1.9c0,1.96-2.007,2.531-3.75,1.008v.894H17.571V18.8h1.875V21.85c1.875-1.875,3.75-1.172,3.75.7Zm7.5-3.723v.937h-3.75v1.875a.937.937,0,0,0,1.875,0V26.3H30.7v.938a2.813,2.813,0,0,1-5.625,0v-3.75a2.813,2.813,0,0,1,5.625,0v.938Z" transform="translate(-2.571 -1.928)" fill="#fff"/>
</svg>
